<svg width="811" height="192" xmlns="http://www.w3.org/2000/svg" xmlns:xlink="http://www.w3.org/1999/xlink" xml:space="preserve" overflow="hidden"><defs><clipPath id="clip0"><rect x="1905" y="592" width="811" height="192"/></clipPath></defs><g clip-path="url(#clip0)" transform="translate(-1905 -592)"><path d="M1905 623.001C1905 605.879 1918.88 592 1936 592L2685 592C2702.12 592 2716 605.879 2716 623.001L2716 746.999C2716 764.12 2702.12 778 2685 778L1936 778C1918.88 778 1905 764.12 1905 746.999Z" fill="#7030A0" fill-rule="evenodd"/><text fill="#FFFFFF" font-family="Poppins,Poppins_MSFontService,sans-serif" font-weight="400" font-size="83" transform="matrix(1 0 0 1 1959.69 711)">d</text><text fill="#FFFFFF" font-family="Poppins,Poppins_MSFontService,sans-serif" font-weight="400" font-size="83" transform="matrix(1 0 0 1 2015.27 711)">ecision</text><text fill="#FFFFFF" font-family="Poppins,Poppins_MSFontService,sans-serif" font-weight="400" font-size="83" transform="matrix(1 0 0 1 2304.59 711)">-</text><text fill="#FFFFFF" font-family="Poppins,Poppins_MSFontService,sans-serif" font-weight="400" font-size="83" transform="matrix(1 0 0 1 2349.85 711)">making</text></g></svg>