<svg width="1405" height="1575" xmlns="http://www.w3.org/2000/svg" xmlns:xlink="http://www.w3.org/1999/xlink" xml:space="preserve" overflow="hidden"><defs><clipPath id="clip0"><rect x="1817" y="154" width="1405" height="1575"/></clipPath><clipPath id="clip1"><rect x="1817" y="154" width="1405" height="1559"/></clipPath><clipPath id="clip2"><rect x="1817" y="154" width="1405" height="1559"/></clipPath><clipPath id="clip3"><rect x="1817" y="154" width="1405" height="1559"/></clipPath></defs><g clip-path="url(#clip0)" transform="translate(-1817 -154)"><path d="M1895.01 630.118C1896.67 529.955 2076.84 369.217 2166.5 368.016 2256.17 366.815 2433 431.776 2433 622.913 2433 814.049 2246.22 967.795 2156.55 968.996 2066.89 970.196 1893.35 730.281 1895.01 630.118Z" fill="#0C1117" fill-rule="evenodd"/><path d="M1850.03 965.529C1854.24 739.87 2312.03 377.742 2539.86 375.036 2767.69 372.331 3217 518.682 3217 949.296 3217 1379.91 2742.4 1726.28 2514.57 1728.99 2286.75 1731.7 1845.82 1191.19 1850.03 965.529Z" fill="#0C1117" fill-rule="evenodd"/><g clip-path="url(#clip1)"><g clip-path="url(#clip2)"><g clip-path="url(#clip3)"><path d="M702.5 17.3869C314.369 17.3869 0 331.931 0 719.887 0 1030.33 201.266 1293.6 480.334 1386.38 515.459 1393 528.339 1371.28 528.339 1352.61 528.339 1335.92 527.753 1291.72 527.46 1233.18 332.048 1275.56 290.835 1138.93 290.835 1138.93 258.871 1057.85 212.682 1036.19 212.682 1036.19 149.047 992.632 217.599 993.511 217.599 993.511 288.142 998.428 325.199 1065.87 325.199 1065.87 387.839 1173.29 489.642 1142.26 529.802 1124.29 536.125 1078.86 554.214 1047.9 574.294 1030.33 418.28 1012.77 254.305 952.356 254.305 683.181 254.305 606.492 281.527 543.852 326.604 494.677 318.701 476.939 294.991 405.518 332.751 308.749 332.751 308.749 391.585 289.898 525.938 380.755 582.138 365.124 641.851 357.397 701.563 357.046 761.276 357.397 820.988 365.124 877.188 380.755 1010.66 289.898 1069.5 308.749 1069.5 308.749 1107.26 405.518 1083.55 476.939 1076.52 494.677 1121.31 543.852 1148.53 606.492 1148.53 683.181 1148.53 953.058 984.32 1012.48 828.013 1029.75 852.601 1050.82 875.432 1093.91 875.432 1159.71 875.432 1253.73 874.554 1329.25 874.554 1352.08 874.554 1370.52 886.848 1392.47 922.851 1385.45 1203.91 1293.3 1405 1029.86 1405 719.887 1405 331.931 1090.46 17.3869 702.5 17.3869" fill="#FFFFFF" transform="matrix(1 0 0 1.10961 1817 154)"/></g></g></g></g></svg>