<svg width="811" height="193" xmlns="http://www.w3.org/2000/svg" xmlns:xlink="http://www.w3.org/1999/xlink" xml:space="preserve" overflow="hidden"><defs><clipPath id="clip0"><rect x="1914" y="821" width="811" height="193"/></clipPath></defs><g clip-path="url(#clip0)" transform="translate(-1914 -821)"><path d="M1914 852.167C1914 834.954 1927.95 821 1945.17 821L2693.83 821C2711.05 821 2725 834.954 2725 852.167L2725 976.832C2725 994.046 2711.05 1008 2693.83 1008L1945.17 1008C1927.95 1008 1914 994.046 1914 976.832Z" fill="#F03AF4" fill-rule="evenodd"/><text fill="#FFFFFF" font-family="Poppins,Poppins_MSFontService,sans-serif" font-weight="400" font-size="83" transform="matrix(1 0 0 1 2033.03 941)">g</text><text fill="#FFFFFF" font-family="Poppins,Poppins_MSFontService,sans-serif" font-weight="400" font-size="83" transform="matrix(1 0 0 1 2088.6 941)">oal</text><text fill="#FFFFFF" font-family="Poppins,Poppins_MSFontService,sans-serif" font-weight="400" font-size="83" transform="matrix(1 0 0 1 2216.93 941)">-</text><text fill="#FFFFFF" font-family="Poppins,Poppins_MSFontService,sans-serif" font-weight="400" font-size="83" transform="matrix(1 0 0 1 2262.19 941)">oriented</text></g></svg>